<?xml version="1.0" encoding="UTF-8" standalone="no"?>
<!--part of the rodentia icon theme by sixsixfive released under CC0 (https://creativecommons.org/publicdomain/zero/1.0/) on openclipart-->
<svg xmlns="http://www.w3.org/2000/svg" xmlns:xlink="http://www.w3.org/1999/xlink" viewBox="0 0 48 48">
 <defs id="0">
  <linearGradient id="2">
   <stop id="E" stop-color="#d3d7cf"/>
   <stop id="F" offset="1" stop-color="#fff"/>
  </linearGradient>
  <linearGradient id="3">
   <stop id="G" stop-color="#2e3436"/>
   <stop id="H" offset="1" stop-color="#2e3436" stop-opacity="0"/>
  </linearGradient>
  <linearGradient id="4">
   <stop id="I" stop-color="#eeeeec"/>
   <stop id="J" offset="1" stop-color="#eeeeec" stop-opacity="0"/>
  </linearGradient>
  <linearGradient id="5">
   <stop id="K" stop-color="#fff" stop-opacity="0.8"/>
   <stop id="L" offset="1" stop-color="#fff" stop-opacity="0"/>
  </linearGradient>
  <radialGradient cx="60.05" cy="51.39" r="15.03" id="6" xlink:href="#7" gradientUnits="userSpaceOnUse" gradientTransform="matrix(-1.404511,1.1888571,-1,-1.1813958,199.73811,11.750541)"/>
  <linearGradient id="7">
   <stop id="M" stop-color="#eee"/>
   <stop id="N" offset="1" stop-color="#dcdcdc"/>
  </linearGradient>
  <radialGradient cx="24.377" cy="45.941" r="23.08" id="8" xlink:href="#3" gradientUnits="userSpaceOnUse" gradientTransform="matrix(1,0,0,0.1455399,0,39.255173)"/>
  <radialGradient cx="23.716" cy="39.14" r="16.375" id="9" xlink:href="#2" gradientUnits="userSpaceOnUse" gradientTransform="matrix(2.2840271,-1.5342068,1.2867642,1.9156502,-80.627329,2.6721582)"/>
  <linearGradient y1="4.219" x2="0" y2="43.781" id="A" xlink:href="#5" gradientUnits="userSpaceOnUse"/>
  <linearGradient x1="4.094" y1="-58.01" x2="15.298" y2="33.906" id="B" xlink:href="#4" gradientUnits="userSpaceOnUse" gradientTransform="translate(0.7063923,-1.4999995)"/>
 </defs>
 <g id="1">
  <path d="m 47.453955,45.941494 a 23.076923,3.3586134 0 1 1 -46.153847,0 23.076923,3.3586134 0 1 1 46.153847,0 z" transform="translate(-0.37703133,-2.8001078)" id="C" opacity="0.8" fill="url(#8)"/>
  <g transform="translate(-0.70639229,0)" id="D">
   <rect width="42" height="42" x="3.706" y="1.5" id="O" fill="#183768" rx="6"/>
   <path d="M 9,4.09375 C 6.2608771,4.09375 4.09375,6.2608771 4.09375,9 l 0,30 c 0,2.739123 2.1671271,4.90625 4.90625,4.90625 l 30,0 c 2.739123,0 4.90625,-2.167127 4.90625,-4.90625 l 0,-30 C 43.90625,6.2608771 41.739123,4.09375 39,4.09375 l -30,0 z" transform="translate(0.7063923,-1.4999995)" id="P" fill="#3465a4"/>
   <path d="M 11.65625,8.71875 C 11.356769,8.7608804 11.094781,8.9097046 10.875,9.125 10.581959,9.4120609 10.415777,9.8091102 10.4375,10.21875 L 11.8125,39 c 0.01645,0.569922 0.376403,1.07067 0.90625,1.28125 0.529847,0.210579 1.128066,0.09064 1.53125,-0.3125 l 7.84375,-7.5625 c 6.263823,5.764078 15.025672,6.810351 22.53125,4.25 l 0,-12.375 C 41.490709,25.007738 37.732901,24.075388 34.25,20.6875 35.911102,19.089405 42.25,13 42.25,13 c 0.41839,-0.392002 0.572574,-0.99303 0.375,-1.53125 -0.197576,-0.53822 -0.708606,-0.909295 -1.28125,-0.9375 l -29.375,-1.8125 c -0.102276,-0.00754 -0.212673,-0.014043 -0.3125,0 z" id="Q" fill="#204a87" display="block"/>
   <path d="m 11.875,10.15625 1.375,28.78125 8.78125,-8.46875 c 5.999642,6.35705 15.036538,7.465862 22.59375,4.6875 l 0,-9.40625 c -3.898155,0.766658 -8.528394,-0.646995 -12.4375,-5.0625 0,0 9.062501,-8.71875 9.0625,-8.71875 l -29.375,-1.8125 z" id="R" fill="url(#9)" display="block"/>
   <path d="M 9,4.71875 C 6.5943852,4.71875 4.71875,6.5943852 4.71875,9 l 0,30 c 0,2.405615 1.8756352,4.28125 4.28125,4.28125 l 30,0 c 2.405615,0 4.28125,-1.875635 4.28125,-4.28125 l 0,-30 C 43.28125,6.5943852 41.405615,4.71875 39,4.71875 l -30,0 z" transform="translate(0.7063923,-1.4999995)" id="S" opacity="0.8" fill="none" stroke="url(#A)" stroke-linecap="round" stroke-dashoffset="30"/>
   <path d="m 9.7063923,2.5937505 c -2.7391229,0 -4.90625,2.1671271 -4.90625,4.90625 l 0,17.1562505 C 16.88535,19.523108 30.480987,15.086728 44.612642,12.125001 l 0,-4.6250005 c 0,-2.7391229 -2.167127,-4.90625 -4.90625,-4.90625 l -29.9999997,0 z" id="T" opacity="0.6" fill="url(#B)"/>
  </g>
 </g>
</svg>
